<?xml version="1.0" standalone="no"?>
<!DOCTYPE svg PUBLIC "-//W3C//DTD SVG 20010904//EN"
 "http://www.w3.org/TR/2001/REC-SVG-20010904/DTD/svg10.dtd">
<svg version="1.0" xmlns="http://www.w3.org/2000/svg"
 width="800.000000pt" height="800.000000pt" viewBox="0 0 800.000000 800.000000"
 preserveAspectRatio="xMidYMid meet">
<metadata>
Created by potrace 1.14, written by Peter Selinger 2001-2017
</metadata>
<g transform="translate(0.000000,800.000000) scale(0.100000,-0.100000)"
fill="#000000" stroke="none">
<path d="M3245 7791 c-16 -50 -57 -94 -138 -151 -71 -50 -94 -128 -61 -210 19
-47 14 -61 -68 -194 -77 -124 -96 -176 -149 -390 -18 -74 -29 -102 -46 -113
-17 -11 -70 -16 -230 -18 -114 -2 -223 -6 -240 -9 -18 -3 -47 -8 -64 -11 -65
-11 -72 -20 -84 -107 -5 -36 -3 -48 7 -49 30 -2 86 3 128 12 122 27 258 29
365 5 102 -22 100 -31 -10 -52 -11 -3 -39 -13 -62 -24 -22 -11 -63 -25 -90
-31 -82 -21 -112 -38 -140 -80 -53 -80 -32 -261 37 -324 20 -18 20 -18 21 31
1 27 1 52 0 56 -3 23 36 81 89 135 58 59 61 64 57 103 -5 55 19 85 85 105 97
29 202 17 287 -32 42 -25 44 -27 22 -34 -12 -5 -73 -8 -134 -7 -125 2 -149 -6
-203 -64 -40 -42 -84 -135 -91 -190 l-6 -43 32 32 c29 29 90 56 151 68 85 16
111 37 131 104 10 35 20 47 47 58 45 19 140 11 197 -17 61 -30 91 -69 116
-152 17 -54 33 -84 70 -124 26 -29 53 -62 59 -74 32 -60 56 -194 40 -220 -8
-13 -61 -16 -110 -5 -14 3 -34 7 -46 9 -42 8 -92 35 -124 66 -30 29 -32 37
-36 107 -2 66 -7 81 -31 112 -57 71 -175 103 -297 80 -49 -9 -116 -37 -116
-48 0 -3 22 -6 49 -7 59 -1 96 -23 169 -98 29 -30 65 -59 80 -64 26 -10 79
-24 95 -26 10 -1 57 -57 57 -68 0 -11 -4 -11 -84 14 -60 18 -91 21 -201 19
-150 -2 -202 10 -362 85 -160 75 -177 93 -188 209 -9 95 -22 144 -50 185 -49
72 -58 232 -19 330 66 167 298 373 473 420 40 11 144 14 211 6 21 -3 30 6 57
53 18 31 33 59 33 64 0 14 -282 0 -340 -17 -104 -32 -104 -32 -90 -5 21 41 51
68 84 75 17 3 45 16 61 27 75 53 96 112 97 270 0 89 -6 116 -18 81 -19 -54
-59 -131 -78 -148 -12 -10 -44 -33 -73 -52 -69 -44 -86 -78 -77 -154 7 -60 6
-60 -32 -97 -50 -49 -78 -71 -139 -113 -28 -19 -73 -56 -102 -83 -58 -54 -77
-54 -68 1 7 48 23 70 111 157 40 40 78 84 83 96 14 37 5 113 -20 174 -24 58
-39 70 -39 33 -1 -45 -40 -109 -109 -175 -83 -82 -111 -125 -111 -176 0 -29 7
-44 29 -65 24 -23 28 -34 27 -72 -2 -25 -6 -56 -10 -70 -9 -30 -57 -131 -69
-145 -4 -5 -13 -18 -21 -29 -11 -17 -14 -14 -34 32 l-22 51 21 41 c30 57 21
121 -24 192 -37 59 -109 127 -159 151 -38 18 -56 12 -34 -11 36 -40 58 -116
60 -212 4 -132 9 -143 67 -175 92 -50 103 -96 64 -265 -14 -63 -28 -155 -32
-205 -5 -86 -4 -93 26 -156 62 -132 40 -168 -119 -184 -64 -7 -111 -13 -140
-20 -24 -5 -57 -11 -110 -20 -79 -14 -234 -47 -255 -55 -23 -9 -25 -14 -25
-74 0 -36 5 -77 10 -91 9 -23 14 -26 38 -20 36 9 58 13 106 21 22 3 43 7 47
10 6 3 30 7 139 22 75 9 362 9 430 -2 30 -4 68 -10 83 -12 16 -2 33 -7 39 -10
5 -4 27 -9 47 -11 20 -3 40 -9 46 -14 5 -5 17 -9 27 -9 47 0 -4 -40 -68 -54
-17 -4 -73 -8 -125 -10 -106 -4 -157 -20 -208 -69 -46 -45 -77 -95 -95 -158
-17 -59 -30 -149 -22 -149 3 0 17 22 30 49 33 63 69 85 197 117 139 34 152 43
208 140 24 41 39 55 73 68 57 22 103 24 160 7 73 -21 77 -32 26 -87 -75 -81
-134 -138 -160 -156 -15 -10 -39 -43 -54 -75 -34 -69 -37 -147 -9 -208 21 -44
85 -135 96 -135 4 0 4 15 0 33 -11 45 -4 86 21 127 67 112 75 144 54 230 -11
48 5 92 53 140 65 64 137 85 291 84 148 0 207 -10 303 -49 108 -43 154 -89
187 -183 26 -76 36 -89 113 -138 39 -26 77 -54 84 -63 43 -56 81 -183 98 -336
4 -27 8 -57 11 -65 7 -26 7 -135 0 -157 -13 -41 -57 -39 -153 10 -127 63 -170
92 -198 135 -68 103 -76 226 -23 373 45 126 2 196 -172 283 -108 54 -137 59
-97 18 27 -28 87 -150 87 -178 0 -8 25 -39 55 -69 64 -61 87 -109 79 -161 -10
-65 -13 -77 -23 -87 -15 -15 -78 79 -100 151 -26 87 -66 133 -149 174 -60 30
-75 33 -152 33 -75 0 -91 -4 -133 -29 -27 -15 -47 -30 -44 -32 2 -3 25 -7 51
-9 81 -9 112 -32 179 -136 47 -71 73 -85 155 -82 57 2 70 -1 99 -23 46 -35
133 -214 104 -214 -16 0 -101 49 -159 92 -29 22 -72 46 -95 54 -46 16 -140 20
-233 8 -124 -16 -234 -7 -380 32 -130 33 -271 87 -372 140 -89 46 -206 133
-216 160 -10 26 -7 69 8 112 28 79 30 125 7 171 -33 64 -140 133 -230 147 -20
3 -39 8 -43 11 -5 2 -8 -3 -8 -11 0 -9 4 -16 8 -16 15 0 50 -74 57 -120 15
-106 33 -143 85 -177 54 -36 78 -66 86 -107 4 -25 2 -26 -23 -20 -108 25 -285
223 -337 376 -45 134 -42 299 8 437 38 106 102 223 145 266 55 56 276 185 317
185 13 0 13 -3 0 -27 -20 -40 -42 -62 -125 -127 -85 -68 -109 -111 -106 -189
1 -29 12 -76 25 -106 l24 -54 22 52 c15 32 48 77 88 116 76 76 86 105 56 164
-19 38 -19 44 -6 70 20 38 80 89 132 111 42 18 43 21 60 95 1 6 5 18 9 28 6
15 2 16 -36 11 -84 -13 -103 -10 -174 27 -51 27 -103 85 -140 156 -65 126
-197 162 -317 87 -80 -51 -131 -118 -156 -204 -5 -19 -13 -43 -17 -52 -15 -37
14 -16 44 31 40 62 77 79 178 86 44 2 95 11 114 19 85 35 108 26 198 -80 l73
-86 -58 5 c-33 3 -86 15 -119 27 -33 12 -68 23 -78 25 -10 2 -27 7 -38 10 -10
3 -46 -1 -79 -11 -76 -21 -127 -69 -157 -150 -43 -115 -41 -126 18 -75 28 25
74 44 137 57 66 13 125 41 153 71 30 33 34 35 83 30 28 -3 65 -10 81 -15 l30
-10 -40 -17 c-61 -26 -162 -87 -238 -143 -57 -43 -78 -52 -139 -62 -83 -14
-194 -9 -225 11 -12 7 -27 23 -33 34 -41 76 -188 62 -281 -26 -75 -71 -110
-150 -115 -256 -2 -40 1 -73 5 -73 5 0 19 20 31 45 28 59 86 107 187 157 45
22 92 49 105 59 20 18 34 19 162 14 77 -3 142 -8 144 -10 10 -10 -49 -26 -148
-40 -99 -14 -106 -17 -137 -51 -17 -20 -48 -75 -68 -122 -57 -133 -76 -161
-160 -228 l-30 -24 31 5 c38 6 166 58 219 89 59 35 91 75 108 132 30 104 74
158 156 194 24 11 45 20 47 20 2 0 -20 -37 -50 -82 -110 -172 -143 -311 -122
-523 5 -44 9 -111 11 -150 2 -85 7 -97 62 -151 24 -24 43 -49 44 -56 0 -7 2
-20 4 -30 6 -29 -51 -74 -132 -103 -100 -36 -235 -98 -273 -125 -19 -13 -30
-30 -30 -44 0 -29 25 -102 46 -134 l15 -23 42 35 c55 45 203 119 306 153 77
25 86 26 142 14 93 -19 267 -78 338 -113 80 -41 107 -74 94 -114 -16 -51 -150
-111 -263 -119 -66 -5 -81 5 -134 87 -53 81 -109 107 -226 104 -89 -3 -178
-29 -219 -65 -33 -29 -25 -38 32 -34 64 4 95 -8 176 -69 67 -51 107 -64 162
-53 73 14 128 16 146 7 16 -10 15 -12 -12 -22 -16 -7 -38 -14 -47 -16 -199
-46 -262 -45 -370 9 -113 56 -198 147 -243 257 -24 59 -29 207 -10 280 27 104
89 212 167 291 40 41 88 82 106 91 l33 18 -6 92 c-4 51 -8 94 -8 95 -1 1 -34
-10 -72 -24 -223 -80 -314 -78 -387 11 -15 19 -40 38 -55 43 -72 25 -194 -8
-249 -66 -55 -57 -130 -218 -111 -237 3 -3 17 12 31 34 50 79 108 107 241 115
52 3 91 11 111 23 30 17 33 17 78 0 l47 -18 -33 -22 c-39 -27 -92 -46 -124
-46 -30 0 -80 -44 -105 -91 -11 -22 -26 -76 -35 -121 -18 -95 -23 -106 -72
-160 l-35 -39 29 7 c67 16 200 106 247 168 33 42 47 78 53 131 10 94 29 120
114 153 69 26 134 39 129 24 -2 -6 -24 -32 -49 -59 -64 -68 -86 -101 -161
-244 -92 -177 -146 -256 -183 -269 -157 -59 -203 -110 -212 -234 -11 -155 -14
-179 -32 -219 -10 -23 -26 -48 -35 -56 -39 -32 -12 -27 52 10 93 54 154 109
192 176 29 51 32 65 35 154 2 54 8 108 15 121 14 27 80 98 91 98 4 0 8 -48 8
-107 0 -128 15 -189 70 -298 39 -78 85 -132 199 -237 74 -69 70 -103 -23 -172
-120 -90 -294 -325 -339 -458 -14 -40 -14 -45 6 -80 11 -21 24 -38 27 -38 4 0
29 37 54 81 49 83 80 122 151 190 51 48 121 99 128 93 5 -6 -13 -72 -36 -127
-9 -21 -35 -57 -57 -80 -47 -48 -72 -120 -65 -184 8 -81 75 -185 163 -255 26
-21 27 -12 9 52 -16 53 -14 81 9 158 24 84 22 151 -5 198 -31 53 -29 107 9
196 37 87 52 106 153 181 66 49 250 167 261 167 3 0 37 15 78 34 40 18 89 39
108 46 19 7 49 19 65 25 110 46 218 85 223 81 2 -3 -59 -51 -135 -107 -78 -58
-186 -151 -248 -214 -106 -107 -135 -127 -220 -156 -128 -44 -165 -184 -95
-365 18 -46 34 -83 35 -82 2 2 6 23 9 48 14 105 47 163 124 222 93 70 102 85
102 164 0 64 21 95 128 182 78 64 122 89 122 68 0 -7 -7 -19 -15 -26 -9 -7
-13 -15 -11 -18 3 -3 -3 -17 -13 -31 -23 -34 -59 -120 -65 -157 -3 -17 -8 -63
-11 -103 -6 -82 -20 -122 -65 -185 -63 -88 -67 -151 -15 -240 33 -56 201 -216
228 -216 3 0 -3 18 -14 39 -34 72 -43 158 -24 228 5 15 9 30 10 33 0 3 4 14 8
25 25 78 15 126 -48 215 -39 56 -45 70 -45 114 1 130 150 354 295 444 84 52
186 93 274 109 14 2 28 6 31 8 21 13 134 16 162 4 l30 -12 -23 -19 c-13 -10
-49 -32 -79 -49 -30 -17 -78 -46 -105 -65 -35 -24 -66 -36 -100 -39 -55 -6
-90 -26 -129 -71 -22 -27 -66 -114 -65 -129 0 -3 -5 -31 -11 -62 -13 -58 -8
-159 8 -202 8 -24 10 -23 27 21 20 53 24 58 128 151 87 78 125 144 131 226 3
43 10 59 35 85 63 65 194 94 331 74 25 -4 89 -10 144 -13 54 -4 108 -8 119
-11 12 -2 39 -6 62 -9 117 -17 303 -101 411 -186 109 -87 183 -186 239 -319
56 -134 77 -253 79 -450 2 -136 -9 -208 -46 -299 -36 -93 -39 -145 -13 -297
30 -171 -8 -285 -125 -385 -99 -83 -153 -143 -175 -193 -12 -28 -30 -70 -40
-94 -21 -49 -81 -106 -147 -139 -114 -58 -240 -104 -323 -118 -22 -4 -51 -9
-65 -12 -47 -9 -173 -10 -219 -1 -66 13 -100 3 -153 -45 -59 -53 -254 -156
-328 -172 -65 -15 -138 -52 -190 -97 -26 -22 -76 -91 -97 -133 -32 -63 -61
-214 -43 -216 6 -1 29 -2 53 -3 40 -2 43 0 65 43 12 25 22 49 22 54 0 14 71
100 110 133 125 107 187 95 149 -28 -13 -41 -17 -78 -14 -123 l4 -65 -27 0
c-15 0 -59 -9 -97 -20 -79 -24 -200 -32 -269 -19 -58 11 -97 39 -151 111 -54
71 -85 185 -76 279 1 19 39 36 99 43 24 3 89 20 145 38 91 29 116 33 232 34
125 2 133 3 180 31 28 16 59 32 69 36 28 11 9 25 -60 43 -93 25 -215 21 -344
-11 -30 -8 -68 -16 -85 -19 -16 -3 -41 -8 -55 -11 -14 -3 -64 -6 -111 -7 -101
-2 -117 6 -169 84 -47 70 -79 87 -174 92 -68 3 -82 7 -105 30 -22 22 -26 35
-26 84 0 31 4 68 9 82 18 52 -33 -10 -53 -65 -42 -113 -13 -190 94 -247 99
-52 167 -124 181 -191 3 -12 7 -49 10 -82 8 -97 25 -167 52 -223 44 -91 151
-185 269 -239 56 -25 65 -26 219 -24 l161 1 49 -32 c39 -27 56 -47 84 -105
l35 -72 45 -1 c45 -2 130 -2 141 -1 6 1 20 110 21 163 1 15 -12 46 -28 69 -89
127 -104 170 -100 274 3 82 31 142 87 189 81 68 240 142 329 152 19 2 46 6 60
9 14 2 57 7 95 10 163 14 329 53 412 99 15 8 40 20 56 27 15 6 27 14 27 18 0
4 18 17 40 30 22 12 40 18 40 12 0 -17 -97 -155 -154 -217 -59 -65 -135 -109
-210 -122 -122 -21 -309 -1 -449 47 -62 22 -71 20 -132 -18 -75 -48 -114 -82
-109 -96 8 -19 94 -54 148 -59 26 -3 50 -7 55 -10 4 -3 23 -8 41 -11 19 -3 66
-20 107 -36 185 -77 198 -130 74 -311 -124 -183 -259 -252 -491 -251 -197 1
-365 70 -458 188 -18 23 -27 26 -66 23 l-46 -3 21 -43 c29 -58 133 -162 216
-215 198 -128 386 -148 653 -72 168 49 188 45 234 -36 17 -31 42 -71 56 -89
l26 -32 77 61 c42 34 77 68 77 76 0 8 -13 53 -29 101 -53 158 -34 312 51 409
49 55 100 91 216 152 157 82 237 148 356 291 96 116 115 124 140 61 16 -39 24
-148 12 -167 -3 -5 -8 -23 -11 -41 -8 -47 -71 -177 -111 -233 -47 -64 -80 -86
-166 -110 -118 -33 -137 -54 -212 -228 -59 -135 -86 -171 -165 -224 -36 -25
-85 -62 -108 -83 -101 -93 -168 -129 -253 -136 -110 -8 -199 29 -281 118 l-41
44 -76 -6 c-43 -3 -81 -9 -85 -13 -14 -13 21 -60 108 -145 95 -93 153 -128
262 -155 98 -26 166 -20 252 20 64 30 164 96 217 143 16 14 40 35 54 47 88 76
146 128 164 149 34 38 96 80 111 74 8 -3 14 -18 14 -36 -1 -72 19 -160 69
-303 52 -148 50 -175 -15 -168 -68 6 -160 62 -248 151 -46 46 -90 83 -98 83
-8 0 -30 -12 -49 -27 -19 -16 -47 -37 -61 -48 -15 -11 -27 -25 -27 -31 0 -40
229 -213 381 -287 131 -64 215 -87 318 -87 139 0 253 43 340 129 49 49 141
171 141 189 0 6 4 12 9 14 17 6 100 195 120 276 24 94 29 212 10 287 -30 124
-129 255 -192 255 -74 0 -159 -94 -203 -224 -36 -108 -41 -246 -12 -349 23
-86 78 -207 103 -227 16 -13 20 -11 46 20 35 42 35 48 4 110 -85 167 -74 366
24 438 37 27 42 27 74 1 47 -36 78 -185 58 -279 -32 -149 -158 -337 -263 -391
-68 -35 -118 -41 -164 -18 -34 16 -48 32 -77 87 -31 60 -43 93 -53 142 -2 8
-6 33 -11 55 -14 70 -7 294 11 369 34 140 68 190 228 338 49 45 102 134 129
217 28 85 54 137 73 144 24 10 66 -39 102 -121 19 -42 42 -93 52 -112 18 -37
114 -168 154 -210 82 -87 138 -187 162 -290 16 -65 16 -284 2 -340 -4 -14 -9
-35 -12 -48 -16 -80 -84 -196 -138 -237 -31 -23 -42 -26 -78 -21 -27 4 -60 20
-87 41 -24 19 -47 35 -51 35 -9 0 -70 -92 -70 -105 0 -12 57 -61 119 -102 83
-55 157 -75 281 -75 116 0 219 26 334 84 52 26 162 94 176 108 3 3 25 21 50
41 77 62 210 201 210 220 0 5 4 9 9 9 10 0 111 136 111 150 0 6 4 10 8 10 5 0
18 20 30 44 12 24 29 49 37 56 18 15 74 20 96 9 9 -5 27 -10 40 -13 13 -3 55
-14 92 -25 l69 -20 23 24 c12 14 32 49 43 78 18 47 19 53 4 65 -9 6 -23 12
-31 12 -41 0 -154 46 -190 77 -37 31 -129 148 -158 201 -38 66 -43 80 -43 113
0 68 50 105 225 165 39 14 71 24 73 23 2 -1 76 12 95 17 4 1 13 2 20 3 7 0 51
33 97 72 47 39 92 76 101 83 21 18 136 72 184 87 42 13 189 17 240 6 17 -4 62
-17 101 -31 39 -13 102 -29 141 -36 88 -14 105 -26 108 -73 3 -47 -20 -146
-46 -202 -19 -41 -85 -110 -136 -145 -18 -12 -23 -27 -27 -78 -4 -60 -3 -62
18 -56 42 12 155 85 208 133 59 54 111 141 127 211 5 25 12 83 16 129 9 132
55 198 183 266 85 44 111 80 117 157 4 56 -20 135 -51 169 -25 27 -27 18 -11
-38 13 -42 13 -55 1 -89 -15 -44 -46 -73 -78 -75 -41 -2 -111 -8 -128 -12 -32
-6 -74 -44 -111 -100 -20 -30 -45 -57 -56 -60 -11 -3 -58 -5 -103 -5 -94 0
-147 8 -278 44 -98 26 -256 24 -340 -5 -54 -19 -198 -86 -275 -128 -127 -70
-326 -117 -490 -116 -183 1 -281 58 -407 239 -55 77 -70 111 -55 117 50 19
642 -140 815 -219 29 -13 57 -24 63 -24 21 0 249 122 251 135 4 22 -187 83
-322 102 -72 10 -222 54 -322 94 -162 64 -235 107 -312 182 -39 38 -110 98
-157 133 -170 125 -234 228 -279 448 -27 131 -33 204 -33 356 0 147 11 206 65
345 35 90 44 190 27 278 -24 121 -26 146 -15 202 13 67 45 117 130 200 182
180 458 320 689 351 114 15 295 -7 383 -46 77 -33 160 -122 174 -185 8 -36 2
-49 -53 -118 -26 -32 -29 -46 -37 -152 -7 -96 -13 -124 -34 -162 l-26 -46 33
6 c50 8 123 45 157 80 53 54 75 113 75 197 0 71 -2 78 -40 135 -23 33 -46 73
-53 89 -12 28 -12 29 5 15 56 -44 146 -161 179 -234 35 -76 34 -136 -5 -213
-39 -76 -40 -104 -11 -210 22 -83 24 -169 4 -257 l-7 -30 27 29 c80 84 166
269 166 356 0 46 -1 48 -85 172 -13 20 -34 70 -45 110 -32 116 -72 187 -152
269 -146 148 -253 215 -437 270 l-75 23 50 22 c66 29 229 64 276 59 59 -6 121
-25 156 -48 32 -22 42 -45 56 -129 6 -32 16 -43 89 -92 46 -31 93 -65 105 -76
25 -24 64 -95 56 -103 -3 -3 -2 -13 4 -22 28 -50 41 142 15 217 -32 93 -103
160 -183 171 -31 4 -150 64 -174 88 -8 8 12 11 64 11 3 0 38 -2 78 -6 165 -14
301 -92 392 -226 57 -85 58 -99 6 -160 -24 -28 -46 -63 -49 -77 -8 -42 1 -107
24 -178 21 -65 22 -97 4 -179 l-6 -28 26 20 c42 33 105 114 136 175 56 109 49
191 -25 299 -23 35 -62 92 -87 128 -56 83 -57 84 -101 128 -41 40 -48 55 -20
45 37 -15 190 -107 241 -146 92 -70 186 -217 191 -298 5 -59 0 -73 -35 -113
-19 -21 -35 -44 -35 -52 0 -8 -4 -14 -9 -14 -13 0 -28 -71 -27 -126 1 -49 1
-49 35 -49 19 0 36 -6 38 -12 3 -8 -5 -13 -20 -13 -20 0 -24 -4 -20 -20 3 -11
1 -20 -5 -20 -6 0 -20 -19 -30 -42 -11 -24 -33 -61 -51 -82 -17 -22 -29 -41
-27 -44 8 -8 99 31 158 67 98 61 159 186 145 301 -3 25 -21 79 -40 120 -19 41
-45 104 -57 140 -12 36 -40 101 -61 146 -21 44 -39 84 -39 87 0 4 22 -4 50
-18 53 -27 74 -52 86 -100 11 -50 46 -107 98 -162 66 -69 70 -79 68 -141 -2
-60 8 -61 38 -2 65 127 50 264 -37 341 -43 37 -66 46 -135 54 -54 6 -147 46
-213 91 -20 13 -39 24 -43 24 -4 0 -27 19 -52 41 l-45 40 63 -6 c91 -8 256
-50 347 -90 170 -74 290 -149 364 -231 70 -77 177 -239 216 -330 27 -63 33
-88 33 -147 -1 -173 -68 -237 -208 -197 -58 16 -91 15 -130 -5 -41 -21 -138
-118 -171 -170 -29 -46 -54 -104 -47 -110 2 -2 20 8 39 24 44 36 86 49 181 54
98 6 120 18 208 122 40 47 74 74 94 75 16 0 -4 -63 -39 -124 -43 -75 -51 -85
-97 -120 -31 -23 -48 -28 -111 -30 -124 -5 -146 -27 -222 -218 -31 -77 -66
-126 -113 -158 -18 -13 -30 -25 -28 -27 8 -9 139 38 209 75 75 39 163 119 183
168 8 18 15 47 16 64 3 38 19 56 117 134 74 59 98 90 139 181 l23 50 -5 -75
c-12 -175 -88 -378 -183 -490 -107 -125 -229 -206 -387 -257 -64 -20 -101 -39
-132 -66 -50 -44 -96 -133 -113 -217 -13 -65 -20 -180 -11 -185 3 -2 21 21 39
51 33 55 85 97 173 138 64 29 101 76 121 153 31 114 42 130 116 168 36 18 97
56 136 84 38 28 73 51 76 51 11 0 2 -156 -10 -178 -6 -11 -34 -28 -62 -38
-106 -39 -170 -142 -170 -278 0 -39 6 -91 13 -116 l14 -45 24 50 c14 27 66 93
117 147 104 110 103 106 107 278 4 127 24 207 77 295 52 89 87 170 110 256 41
158 47 210 45 376 -3 181 2 186 48 51 41 -118 41 -164 -1 -288 -39 -117 -48
-221 -32 -345 6 -38 11 -80 13 -93 5 -35 14 -37 21 -6 14 65 39 116 82 171 88
113 90 148 17 328 -44 110 -48 124 -59 198 -4 22 -10 49 -14 61 -5 11 -8 23
-8 26 3 46 -159 352 -274 515 -60 86 -308 320 -389 368 -48 28 -134 53 -210
62 -92 10 -214 46 -200 58 3 2 50 32 105 65 106 66 124 84 145 147 33 97 16
192 -52 298 l-33 52 -7 -56 c-4 -33 -23 -86 -47 -135 -22 -43 -44 -98 -49
-122 -6 -23 -10 -43 -11 -45 0 -1 6 -23 13 -48 17 -55 6 -87 -36 -107 -78 -37
-198 2 -198 64 0 22 12 39 121 171 88 106 163 261 175 360 l5 44 -47 20 c-26
12 -63 23 -83 26 -33 4 -37 2 -50 -29 -7 -18 -20 -46 -28 -63 -8 -16 -21 -63
-29 -102 -16 -84 -42 -130 -110 -193 -103 -96 -232 -159 -296 -145 l-29 7 30
33 c16 18 30 37 32 42 2 5 25 23 51 41 106 72 101 241 -10 370 -35 41 -43 41
-31 0 17 -60 10 -108 -26 -188 -40 -88 -41 -97 -19 -144 47 -97 -49 -153 -286
-171 -47 -3 -114 -10 -150 -15 -113 -16 -200 -21 -200 -11 0 15 68 70 107 86
42 18 67 23 152 30 120 10 207 69 252 169 35 79 31 196 -7 236 -12 12 -14 11
-14 -13 0 -37 -46 -84 -145 -150 -85 -56 -118 -99 -129 -167 -7 -44 -18 -55
-66 -65 -32 -6 -102 -40 -157 -75 -28 -18 -32 -14 -37 38 -5 52 11 73 77 96
71 26 106 80 122 189 9 56 20 80 55 121 18 20 29 36 26 36 -22 0 -150 -68
-203 -108 -92 -69 -105 -102 -105 -255 0 -78 -5 -133 -13 -154 -12 -29 -43
-54 -73 -59 -7 -1 -44 -21 -82 -43 -82 -49 -140 -75 -218 -97 -93 -26 -216
-53 -221 -49 -6 6 46 137 63 160 8 12 29 20 56 22 76 6 131 38 178 102 57 78
73 96 101 111 37 19 11 26 -86 23 -190 -6 -277 -61 -289 -180 -10 -107 -17
-131 -50 -190 -32 -57 -41 -66 -112 -103 -62 -33 -196 -123 -248 -168 -5 -5
-29 -20 -53 -33 -42 -24 -42 -24 -57 -4 -28 35 -8 204 49 420 6 23 62 131 74
143 7 7 13 17 13 21 0 4 20 28 45 53 50 51 75 61 255 102 63 14 142 32 175 39
65 15 58 17 144 -39 61 -40 167 -15 243 58 58 55 111 146 134 228 6 23 6 24
-12 10 -10 -8 -25 -21 -32 -27 -7 -7 -32 -24 -55 -37 -41 -24 -64 -30 -161
-41 -61 -7 -102 -25 -141 -59 -40 -36 -70 -51 -130 -65 -90 -21 -229 -31 -242
-17 -8 7 153 110 217 139 101 46 393 135 529 161 66 13 157 13 208 1 13 -3 25
-5 28 -6 3 0 24 -7 47 -15 72 -25 162 -20 258 16 47 17 92 33 101 35 9 2 32 7
50 12 35 10 130 9 284 -1 157 -11 258 -32 370 -76 131 -52 174 -88 224 -187
29 -57 28 -105 -3 -186 -27 -71 -27 -90 -1 -192 10 -41 10 -58 -1 -95 -18 -58
-18 -59 8 -57 34 2 112 86 127 137 26 85 17 148 -33 246 -25 49 -48 103 -52
119 l-6 30 30 -35 c64 -73 179 -328 196 -432 3 -19 8 -41 10 -49 7 -18 16
-107 20 -194 2 -38 4 -80 5 -92 1 -20 94 -123 111 -123 4 0 10 18 14 39 3 22
10 51 16 65 l9 25 43 -37 c81 -71 139 -132 149 -160 6 -15 13 -54 16 -87 5
-68 36 -142 83 -200 37 -46 60 -97 60 -132 0 -22 2 -24 15 -13 8 7 15 20 15
29 0 9 4 21 9 27 27 27 34 203 10 268 -24 66 -49 90 -120 116 -44 16 -75 37
-117 79 -120 120 -160 192 -167 301 -2 25 -6 57 -8 71 -3 15 -8 53 -12 85 -7
55 -6 58 10 43 10 -10 18 -36 20 -65 6 -114 36 -169 115 -219 67 -43 240 -75
293 -56 20 8 19 10 -18 29 -54 27 -83 56 -132 132 -56 87 -97 124 -158 144
-28 9 -61 23 -74 32 -32 23 -80 103 -130 219 -58 134 -98 210 -139 263 -18 24
-31 46 -28 49 3 3 18 2 33 -2 15 -5 33 -9 38 -10 30 -7 116 -49 130 -65 20
-22 26 -47 40 -169 3 -30 12 -66 20 -80 36 -69 184 -173 293 -206 31 -9 27 6
-7 30 -17 10 -39 35 -49 55 -19 33 -24 54 -38 155 -14 103 -39 146 -102 175
-26 12 -58 27 -72 33 -14 6 -43 23 -65 36 -22 14 -89 42 -150 63 -68 24 -131
53 -165 78 -30 22 -84 59 -119 82 l-63 42 31 9 c26 6 41 2 84 -22 146 -83 149
-84 222 -85 59 -1 78 4 120 27 44 25 115 80 115 90 0 3 -30 4 -68 4 -65 -1
-70 1 -142 50 -149 101 -248 102 -313 4 -18 -26 -35 -41 -50 -42 -12 -1 -29
-2 -37 -3 -8 0 -51 9 -94 22 -80 24 -95 28 -151 37 -16 3 -37 7 -45 10 -8 2
-42 7 -75 10 -33 4 -73 9 -90 11 -58 8 -301 5 -349 -5 -71 -13 -154 -8 -173
12 -15 15 -13 23 24 104 23 48 49 124 58 168 22 103 24 250 4 270 -14 14 -100
35 -144 35 -23 0 -23 -1 -11 -47 21 -86 11 -167 -34 -258 -63 -129 -179 -204
-341 -220 -125 -12 -163 -17 -190 -25 -38 -11 -46 4 -29 57 13 39 65 103 84
103 6 0 36 12 66 26 109 50 159 123 184 268 8 48 -2 48 -50 2 -35 -35 -62 -49
-127 -70 -45 -14 -96 -35 -114 -46 -64 -38 -86 -100 -70 -197 9 -53 8 -68 -8
-102 -24 -53 -39 -66 -115 -95 -59 -22 -112 -44 -195 -81 -47 -21 -158 -65
-163 -65 -3 0 -2 19 0 43 11 95 64 152 152 163 141 17 190 43 230 122 26 52
61 165 71 226 l5 40 -28 -40 c-37 -50 -43 -55 -127 -97 -83 -42 -105 -64 -145
-143 -38 -76 -50 -91 -83 -100 -27 -6 -27 -6 -15 22 56 129 116 203 215 270
60 40 93 70 122 112 53 78 77 98 145 122 116 39 222 53 401 53 154 -1 211 -7
346 -37 67 -15 174 -65 294 -139 70 -43 185 -140 224 -190 14 -17 11 -18 -40
-12 -89 11 -95 13 -129 30 -93 48 -230 -12 -314 -139 -40 -60 -50 -101 -18
-74 34 28 69 36 180 37 62 1 121 5 130 8 28 10 63 46 77 81 12 28 19 32 52 32
46 0 92 -26 128 -74 26 -34 60 -124 50 -134 -10 -11 34 -31 108 -50 42 -11 77
-17 77 -13 4 65 28 127 102 265 35 64 33 138 -5 221 -63 137 -121 223 -95 143
25 -79 22 -133 -12 -206 -45 -98 -45 -164 0 -217 27 -31 30 -62 10 -88 l-19
-22 -11 32 c-7 18 -34 76 -61 128 -26 52 -51 111 -55 130 -4 21 1 77 12 133
21 116 20 144 -7 200 -24 49 -143 173 -188 196 l-29 16 29 -58 c32 -62 34 -82
23 -188 -8 -83 2 -107 75 -188 46 -51 69 -91 58 -102 -9 -10 -232 228 -253
269 -22 43 -30 78 -48 198 -15 101 -64 153 -229 244 -38 20 -71 35 -73 32 -3
-3 4 -23 15 -45 11 -22 28 -72 37 -112 32 -140 64 -183 167 -222 45 -17 68
-33 84 -57 13 -19 23 -38 23 -42 0 -5 -28 7 -62 26 -62 34 -240 98 -308 111
-19 3 -44 8 -55 10 -11 2 -49 10 -85 18 -158 35 -374 44 -500 21 -127 -23
-224 -25 -279 -7 -64 22 -122 85 -177 194 -25 51 -47 94 -49 96 -5 6 -125 -51
-125 -60 0 -5 11 -28 24 -51 49 -83 20 -235 -63 -330 -18 -20 -72 -67 -119
-104 -158 -123 -164 -135 -176 -363 -5 -74 -19 -112 -105 -265 -33 -60 -99
-200 -146 -310 -94 -222 -118 -262 -176 -304 -47 -35 -73 -31 -100 13 -24 39
-56 137 -64 196 -6 41 -15 92 -30 160 -40 192 -19 290 74 339 18 10 27 9 48
-4 40 -26 93 -34 154 -22 74 15 167 129 184 226 3 19 8 39 11 45 3 6 -8 -3
-24 -21 -45 -47 -68 -56 -160 -58 -46 -2 -95 -8 -108 -15 -13 -7 -39 -37 -59
-67 -30 -45 -65 -73 -91 -73 -6 0 35 70 45 80 4 3 15 23 26 45 10 22 31 52 46
66 80 77 75 186 -18 376 -37 78 -49 83 -58 26 -4 -27 -19 -94 -35 -149 -21
-76 -26 -110 -20 -135 11 -47 21 -69 31 -69 9 0 40 -55 38 -67 -2 -13 -41 -87
-48 -93 -4 -3 -27 -34 -52 -70 -49 -69 -63 -105 -74 -183 -3 -26 -10 -45 -15
-42 -8 5 -22 44 -35 95 -4 15 -25 152 -31 195 -5 42 -16 314 -15 380 1 100 75
226 159 269 17 9 54 18 84 21 73 8 112 37 144 109 35 77 42 202 16 271 -20 56
-36 58 -40 4 -4 -56 -20 -83 -96 -161 -60 -61 -66 -71 -66 -109 0 -36 -25 -99
-40 -99 -3 0 -30 -19 -60 -41 l-55 -41 -3 35 c-4 48 19 90 72 129 53 40 78 83
82 140 6 86 15 124 39 167 14 24 24 46 21 48 -12 12 -145 -76 -193 -127 -65
-69 -82 -137 -51 -207 22 -50 20 -60 -28 -206 l-38 -111 -13 31 c-40 99 -40
255 1 376 62 184 160 273 391 354 227 79 351 80 500 2 72 -37 158 -101 197
-145 l28 -32 48 23 c26 13 54 30 61 39 15 17 17 15 -117 132 l-33 29 28 2
c165 8 215 5 307 -22 69 -21 103 -19 161 9 52 24 137 106 149 142 6 21 5 21
-46 8 -32 -9 -94 -13 -158 -12 -115 2 -147 -7 -203 -63 -18 -19 -40 -29 -60
-30 -118 -5 -130 -4 -236 17 -29 6 -78 31 -86 44 -3 5 9 19 26 29 26 16 46 19
103 16 39 -2 88 1 108 6 47 12 120 92 143 157 17 45 35 122 30 122 -2 0 -18
-14 -36 -31 -43 -40 -98 -64 -169 -73 -89 -12 -116 -30 -136 -89 -9 -29 -22
-58 -28 -65 -22 -23 -107 -38 -171 -30 -85 11 -128 11 -227 3 -74 -6 -88 -5
-88 7 0 22 28 44 100 76 80 36 122 70 145 119 19 39 27 109 17 145 -4 18 -7
17 -21 -13 -15 -32 -86 -83 -102 -73 -4 2 -37 -5 -73 -16 -102 -32 -141 -97
-97 -164 18 -27 18 -32 5 -57 -16 -32 -31 -41 -100 -65 -67 -22 -267 -119
-334 -162 -30 -19 -74 -55 -97 -80 l-42 -45 -63 6 c-35 4 -90 11 -123 17 -93
16 -159 21 -170 13 -5 -5 -26 -25 -44 -46 -40 -42 -35 -54 23 -61 54 -7 105
-36 140 -80 26 -32 31 -46 31 -94 0 -54 -8 -128 -20 -182 -3 -14 -8 -42 -10
-62 -10 -74 -38 -115 -72 -104 -10 3 -56 32 -103 64 -109 74 -125 103 -125
222 0 91 15 158 51 230 35 71 119 162 194 210 127 82 273 111 442 88 60 -8 71
-6 121 17 31 14 58 29 62 35 8 13 -111 48 -189 55 -120 12 -183 9 -291 -15
-22 -5 -41 -7 -44 -4 -8 7 79 82 116 99 35 17 58 17 193 1 53 -6 150 30 203
76 26 22 47 44 47 49 0 5 -20 7 -46 4 -35 -5 -67 1 -139 26 -151 52 -199 34
-280 -104 -29 -49 -52 -73 -103 -108 -36 -24 -94 -66 -128 -94 -35 -27 -82
-60 -104 -73 -46 -26 -50 -18 -24 47 13 32 31 50 93 89 100 64 125 108 127
226 2 76 -8 130 -26 141 -5 3 -16 -17 -25 -44z m1220 -5935 c6 -6 28 -37 49
-68 73 -111 197 -214 370 -307 218 -117 286 -204 292 -370 6 -167 -67 -348
-199 -496 -30 -32 -36 -46 -32 -70 3 -16 2 -36 -3 -43 -11 -16 -45 -23 -62
-12 -9 6 -25 -1 -49 -22 -78 -69 -229 -115 -232 -70 -3 41 7 81 40 167 30 77
55 182 65 275 3 25 5 46 5 48 1 1 8 2 18 2 9 0 57 -42 107 -94 50 -51 105
-100 122 -109 l32 -16 28 42 c58 87 58 87 12 120 -22 16 -51 41 -64 56 -27 30
-83 139 -116 226 -35 91 -84 135 -192 169 -48 16 -99 39 -113 52 -32 30 -70
90 -116 184 -45 91 -56 141 -54 234 2 86 23 128 59 118 13 -3 28 -10 33 -16z"/>
<path d="M5420 7566 c0 -3 12 -18 26 -33 35 -37 53 -81 60 -145 10 -101 29
-128 108 -154 105 -34 125 -54 130 -124 l3 -38 -71 38 c-79 43 -178 77 -246
86 -75 10 -224 11 -247 3 -13 -5 -23 -5 -23 0 0 10 -203 -32 -260 -55 -91 -36
-142 -79 -316 -268 -88 -95 -104 -136 -97 -258 2 -48 -1 -104 -7 -128 -6 -23
-10 -44 -7 -46 5 -5 170 162 202 205 35 48 42 95 20 140 -40 82 -39 89 14 140
80 77 226 150 334 167 72 12 210 10 279 -2 157 -29 278 -98 432 -246 21 -21
43 -38 50 -39 6 0 18 -2 26 -4 17 -3 67 -11 128 -20 l42 -6 -33 53 c-50 78
-57 107 -41 154 7 21 18 40 24 42 23 8 51 84 51 140 1 85 -39 170 -122 266
-33 38 -38 32 -18 -26 19 -58 18 -120 -4 -183 -20 -55 -15 -92 20 -147 30 -47
32 -60 18 -112 l-8 -29 -44 49 c-61 67 -74 103 -77 211 -3 77 -7 99 -29 135
-24 41 -103 124 -159 168 -47 36 -158 82 -158 66z"/>
<path d="M4010 7253 l-44 -16 29 -13 c17 -6 49 -20 72 -29 59 -25 115 -84 158
-170 48 -95 55 -149 25 -212 -61 -129 -63 -200 -9 -284 32 -50 34 -59 34 -140
0 -79 1 -85 15 -65 8 11 15 23 16 26 0 3 12 30 27 61 29 63 57 196 57 269 0
56 -18 113 -54 167 -14 21 -35 70 -47 108 -11 39 -34 94 -50 123 -36 66 -36
75 -1 60 35 -15 72 -48 72 -64 0 -13 38 -55 91 -99 51 -43 71 -86 72 -162 1
-59 2 -62 14 -39 56 107 49 306 -13 357 -31 26 -83 36 -133 25 -59 -12 -96 2
-194 71 -67 47 -72 48 -137 26z"/>
<path d="M525 4813 c-16 -21 -31 -40 -35 -43 -14 -13 -139 -159 -162 -190 -14
-19 -36 -46 -48 -60 -12 -14 -43 -54 -68 -90 -25 -36 -71 -92 -102 -125 -79
-84 -101 -132 -105 -235 -3 -80 47 -217 106 -290 l20 -25 -8 35 c-18 77 -9
141 30 216 41 77 44 104 32 230 -6 67 -5 86 10 115 18 35 54 79 65 79 3 0 -2
-37 -11 -82 -26 -127 -23 -283 7 -393 28 -102 35 -165 24 -207 -5 -15 -33 -52
-64 -82 -62 -62 -75 -100 -69 -205 4 -83 35 -150 102 -221 53 -57 62 -55 36 7
-22 52 -19 82 20 199 36 107 37 129 9 183 -8 14 -14 36 -14 47 0 34 12 84 20
84 4 0 24 -28 46 -62 52 -86 156 -188 296 -291 160 -118 209 -169 262 -274 46
-93 39 -145 -35 -254 -36 -53 -42 -70 -44 -123 -2 -38 3 -82 14 -118 23 -70
81 -175 116 -208 l26 -25 -10 29 c-21 54 -15 98 24 186 50 111 54 191 13 266
-15 27 -30 72 -33 99 -3 28 -8 70 -11 94 -7 59 -45 150 -94 223 -22 34 -39 65
-38 69 5 13 96 -24 133 -54 23 -18 39 -44 51 -80 19 -61 46 -83 151 -122 77
-29 125 -63 150 -105 9 -17 20 -30 24 -30 6 0 3 50 -5 113 -7 44 -60 148 -101
195 -59 67 -102 85 -222 88 -101 3 -181 24 -224 61 -8 7 -21 13 -27 13 -20 0
-165 151 -231 240 -70 95 -132 217 -151 299 -7 30 -14 111 -15 181 -2 153 15
217 88 328 78 117 92 124 95 49 2 -38 -4 -54 -43 -111 -75 -110 -90 -150 -89
-236 1 -57 6 -85 24 -118 29 -55 39 -60 36 -17 -4 47 22 100 80 164 70 77 84
101 84 147 0 30 -8 52 -32 85 -27 37 -31 52 -31 101 0 33 7 75 17 96 l17 38
-39 78 -38 78 -29 -39z"/>
<path d="M7347 4349 c-24 -103 -45 -138 -118 -192 -64 -47 -110 -114 -122
-176 -20 -106 -47 -171 -85 -209 l-36 -34 44 7 c161 26 299 121 331 227 6 18
12 74 15 123 5 105 9 124 35 183 23 50 16 82 -25 121 l-22 21 -17 -71z"/>
<path d="M409 3577 c-1 -1 -3 -45 -4 -97 -1 -52 -6 -130 -10 -173 -8 -85 5
-153 35 -184 10 -10 48 -47 84 -82 36 -36 66 -70 66 -76 0 -7 6 -18 14 -24 8
-7 22 -37 32 -67 17 -55 34 -79 32 -47 -1 10 2 34 5 53 38 203 39 250 8 315
-26 53 -53 82 -131 139 -36 27 -68 53 -73 60 -4 6 -6 38 -6 71 2 60 -12 99
-38 109 -7 3 -14 4 -14 3z"/>
<path d="M6099 1789 c-72 -33 -114 -53 -124 -61 -5 -5 -25 -18 -44 -31 -56
-37 -58 -46 -27 -135 30 -88 35 -161 13 -213 -8 -20 -37 -66 -65 -104 -33 -45
-49 -76 -46 -89 3 -12 7 -48 10 -81 15 -153 -109 -368 -251 -434 -68 -32 -159
-39 -226 -17 -28 10 -55 14 -60 9 -4 -4 -28 -35 -53 -67 -53 -69 -51 -73 49
-105 157 -49 347 -3 476 116 75 70 115 132 215 332 97 196 127 240 189 277 40
23 53 26 103 21 31 -3 67 -8 80 -11 28 -6 40 19 38 83 l-1 45 -72 12 c-39 6
-76 15 -82 19 -13 8 -56 17 -91 19 -24 1 -25 3 -22 58 2 33 -4 83 -13 116 -30
106 -7 134 76 92 82 -43 182 -163 216 -263 31 -90 10 -206 -47 -265 -42 -44
-130 -92 -218 -121 -85 -27 -88 -30 -119 -81 -17 -28 -36 -65 -42 -80 -9 -27
-8 -28 22 -23 157 23 325 122 425 249 29 37 69 121 78 165 10 43 11 185 2 224
-27 127 -114 245 -237 324 -69 44 -91 47 -152 20z"/>
</g>
</svg>
